<mxfile host="app.diagrams.net" modified="2023-02-20T12:33:58.004Z" agent="5.0 (Windows)" etag="L0zKKzS6socaKCtSojAz" version="20.8.20" type="github">
  <diagram name="Leht-1" id="CPnrrl5EwECFKB0dTsxA">
    <mxGraphModel dx="891" dy="1151" grid="1" gridSize="10" guides="1" tooltips="1" connect="1" arrows="1" fold="1" page="1" pageScale="1" pageWidth="827" pageHeight="1169" math="0" shadow="0">
      <root>
        <mxCell id="0" />
        <mxCell id="1" parent="0" />
        <mxCell id="vIRj2G_M8DmVNi-PBpHt-6" style="edgeStyle=orthogonalEdgeStyle;rounded=0;orthogonalLoop=1;jettySize=auto;html=1;" edge="1" parent="1" source="vIRj2G_M8DmVNi-PBpHt-1" target="vIRj2G_M8DmVNi-PBpHt-2">
          <mxGeometry relative="1" as="geometry" />
        </mxCell>
        <mxCell id="vIRj2G_M8DmVNi-PBpHt-1" value="var StreetList = new Dictionary&amp;lt;string, string&amp;gt;()" style="rounded=0;whiteSpace=wrap;html=1;" vertex="1" parent="1">
          <mxGeometry x="210" y="320" width="260" height="30" as="geometry" />
        </mxCell>
        <mxCell id="vIRj2G_M8DmVNi-PBpHt-7" style="edgeStyle=orthogonalEdgeStyle;rounded=0;orthogonalLoop=1;jettySize=auto;html=1;entryX=0.5;entryY=0;entryDx=0;entryDy=0;" edge="1" parent="1" source="vIRj2G_M8DmVNi-PBpHt-2" target="vIRj2G_M8DmVNi-PBpHt-3">
          <mxGeometry relative="1" as="geometry" />
        </mxCell>
        <mxCell id="vIRj2G_M8DmVNi-PBpHt-2" value="StreetList.Add(&quot;Kullamäe&quot;, &quot;tänav&quot;);&lt;br&gt;StreetList.Add(&quot;Mihkli&quot;, &quot;tänav&quot;);&lt;br&gt;StreetList.Add(&quot;Kadaka&quot;, &quot;tänav&quot;);&lt;br&gt;StreetList.Add(&quot;Tapa&quot;, &quot;tänav&quot;);&lt;br&gt;StreetList.Add(&quot;Viru&quot;, &quot;tänav&quot;);" style="whiteSpace=wrap;html=1;align=center;" vertex="1" parent="1">
          <mxGeometry x="240" y="390" width="200" height="80" as="geometry" />
        </mxCell>
        <mxCell id="vIRj2G_M8DmVNi-PBpHt-11" style="edgeStyle=orthogonalEdgeStyle;rounded=0;orthogonalLoop=1;jettySize=auto;html=1;entryX=0.5;entryY=0;entryDx=0;entryDy=0;" edge="1" parent="1" source="vIRj2G_M8DmVNi-PBpHt-3" target="vIRj2G_M8DmVNi-PBpHt-8">
          <mxGeometry relative="1" as="geometry" />
        </mxCell>
        <mxCell id="vIRj2G_M8DmVNi-PBpHt-3" value="Console.WriteLine(&quot;Tänava List&quot;);" style="whiteSpace=wrap;html=1;" vertex="1" parent="1">
          <mxGeometry x="240" y="510" width="200" height="40" as="geometry" />
        </mxCell>
        <mxCell id="vIRj2G_M8DmVNi-PBpHt-10" style="edgeStyle=orthogonalEdgeStyle;rounded=0;orthogonalLoop=1;jettySize=auto;html=1;entryX=0.5;entryY=0;entryDx=0;entryDy=0;" edge="1" parent="1" source="vIRj2G_M8DmVNi-PBpHt-4" target="vIRj2G_M8DmVNi-PBpHt-1">
          <mxGeometry relative="1" as="geometry" />
        </mxCell>
        <mxCell id="vIRj2G_M8DmVNi-PBpHt-4" value="START" style="rhombus;whiteSpace=wrap;html=1;fontStyle=1" vertex="1" parent="1">
          <mxGeometry x="280" y="160" width="120" height="120" as="geometry" />
        </mxCell>
        <mxCell id="vIRj2G_M8DmVNi-PBpHt-5" value="END" style="rhombus;whiteSpace=wrap;html=1;fontStyle=1" vertex="1" parent="1">
          <mxGeometry x="280" y="710" width="120" height="120" as="geometry" />
        </mxCell>
        <mxCell id="vIRj2G_M8DmVNi-PBpHt-12" style="edgeStyle=orthogonalEdgeStyle;rounded=0;orthogonalLoop=1;jettySize=auto;html=1;" edge="1" parent="1" source="vIRj2G_M8DmVNi-PBpHt-8" target="vIRj2G_M8DmVNi-PBpHt-5">
          <mxGeometry relative="1" as="geometry" />
        </mxCell>
        <mxCell id="vIRj2G_M8DmVNi-PBpHt-8" value="foreach (var street in StreetList)&lt;br&gt;{&lt;br&gt;&amp;nbsp;&amp;nbsp; &amp;nbsp;Console.WriteLine($&quot;{street.Key} {street.Value}&quot;);&lt;br&gt;&lt;div&gt;}&lt;br&gt;&lt;/div&gt;" style="whiteSpace=wrap;html=1;align=left;" vertex="1" parent="1">
          <mxGeometry x="200" y="590" width="280" height="80" as="geometry" />
        </mxCell>
      </root>
    </mxGraphModel>
  </diagram>
</mxfile>
